<svg width="128" height="128" viewBox="0 0 128 128" fill="none" xmlns="http://www.w3.org/2000/svg">
<g filter="url(#filter0_d_193_329)">
<circle cx="64" cy="60" r="40" fill="#99BB44"/>
</g>
<path fill-rule="evenodd" clip-rule="evenodd" d="M62.5 76.5C62.5 77.6046 63.3954 78.5 64.5 78.5C65.6046 78.5 66.5 77.6046 66.5 76.5V62H81C82.1046 62 83 61.1046 83 60C83 58.8954 82.1046 58 81 58H66.5V43.5C66.5 42.3954 65.6046 41.5 64.5 41.5C63.3954 41.5 62.5 42.3954 62.5 43.5V58H48C46.8954 58 46 58.8954 46 60C46 61.1046 46.8954 62 48 62H62.5V76.5Z" fill="#FFFDFD"/>
<defs>
<filter id="filter0_d_193_329" x="0" y="0" width="128" height="128" filterUnits="userSpaceOnUse" color-interpolation-filters="sRGB">
<feFlood flood-opacity="0" result="BackgroundImageFix"/>
<feColorMatrix in="SourceAlpha" type="matrix" values="0 0 0 0 0 0 0 0 0 0 0 0 0 0 0 0 0 0 127 0" result="hardAlpha"/>
<feOffset dy="4"/>
<feGaussianBlur stdDeviation="12"/>
<feComposite in2="hardAlpha" operator="out"/>
<feColorMatrix type="matrix" values="0 0 0 0 0 0 0 0 0 0 0 0 0 0 0 0 0 0 0.12 0"/>
<feBlend mode="normal" in2="BackgroundImageFix" result="effect1_dropShadow_193_329"/>
<feBlend mode="normal" in="SourceGraphic" in2="effect1_dropShadow_193_329" result="shape"/>
</filter>
</defs>
</svg>
